<svg xmlns="http://www.w3.org/2000/svg" viewBox="0 0 512 512" width="100%" height="100%">
  <defs>
    <!-- Gradients -->
    <linearGradient id="purpleGrad" x1="0%" y1="0%" x2="100%" y2="100%">
      <stop offset="0%" stop-color="#7E5FA0" />
      <stop offset="100%" stop-color="#5A3F75" />
    </linearGradient>
    <linearGradient id="cyanGrad" x1="0%" y1="0%" x2="100%" y2="100%">
      <stop offset="0%" stop-color="#0891B2" />
      <stop offset="100%" stop-color="#0E7490" />
    </linearGradient>
    <linearGradient id="glowGrad" x1="0%" y1="0%" x2="100%" y2="100%">
      <stop offset="0%" stop-color="#A78FB5" />
      <stop offset="50%" stop-color="#7FA8A8" />
      <stop offset="100%" stop-color="#C99AB0" />
    </linearGradient>
    <!-- Filter for subtle glow -->
    <filter id="glow" x="-20%" y="-20%" width="140%" height="140%">
      <feGaussianBlur stdDeviation="6" result="blur" />
      <feComposite in="SourceGraphic" in2="blur" operator="over" />
    </filter>
  </defs>
  
  <!-- Outer Hexagon -->
  <polygon points="256,30 452,143 452,369 256,482 60,369 60,143" fill="none" stroke="url(#glowGrad)" stroke-width="12" stroke-linejoin="round" filter="url(#glow)" />
  
  <!-- Subtle Internal Chip Grid -->
  <line x1="256" y1="30" x2="256" y2="150" stroke="#33313B" stroke-width="2" stroke-dasharray="4,4" opacity="0.6" />
  <line x1="60" y1="143" x2="160" y2="200" stroke="#33313B" stroke-width="2" stroke-dasharray="4,4" opacity="0.6" />
  <line x1="452" y1="143" x2="352" y2="200" stroke="#33313B" stroke-width="2" stroke-dasharray="4,4" opacity="0.6" />
  <line x1="60" y1="369" x2="160" y2="312" stroke="#33313B" stroke-width="2" stroke-dasharray="4,4" opacity="0.6" />
  <line x1="452" y1="369" x2="352" y2="312" stroke="#33313B" stroke-width="2" stroke-dasharray="4,4" opacity="0.6" />
  <line x1="256" y1="482" x2="256" y2="362" stroke="#33313B" stroke-width="2" stroke-dasharray="4,4" opacity="0.6" />
  
  <!-- Robot Head structure -->
  <path d="M160,200 L352,200 L392,250 L120,250 Z" fill="url(#purpleGrad)" opacity="0.9" />
  <polygon points="135,260 377,260 362,300 150,300" fill="url(#cyanGrad)" filter="url(#glow)" />
  <line x1="160" y1="280" x2="352" y2="280" stroke="#FFFFFF" stroke-width="3" opacity="0.8" filter="url(#glow)" />
  <polygon points="160,310 352,310 312,370 200,370" fill="url(#purpleGrad)" opacity="0.85" />
  
  <!-- Transaction / Airdrop Arrows -->
  <path d="M 100,180 A 180,180 0 0,1 412,180" fill="none" stroke="url(#glowGrad)" stroke-width="8" stroke-linecap="round" opacity="0.85" />
  <polygon points="412,180 400,165 430,180 400,195" fill="url(#glowGrad)" />
  
  <path d="M 412,332 A 180,180 0 0,1 100,332" fill="none" stroke="url(#glowGrad)" stroke-width="8" stroke-linecap="round" opacity="0.85" />
  <polygon points="100,332 112,317 82,332 112,347" fill="url(#glowGrad)" />
</svg>
